<svg xmlns="http://www.w3.org/2000/svg" viewBox="0 0 64.16 93.74"><defs><style>.cls-1{fill:none;stroke:#231f20;stroke-miterlimit:10;stroke-width:3px;}.cls-2{fill:#231f20;}</style></defs><title>Ресурс 35</title><g id="Слой_2" data-name="Слой 2"><g id="Logo"><path class="cls-1" d="M62.66,32.08A30.59,30.59,0,0,0,30.87,1.52c-15,.59-28.49,13.79-29.32,28.82a30.51,30.51,0,0,0,5,18.52,42.76,42.76,0,0,1,4.24,8.27c2.1,5.45,3.95,10.63,5.08,13.82a4.87,4.87,0,0,0,4.6,3.25H44.37a5,5,0,0,0,4.85-3.65c1-3.44,2.64-8.92,4.75-14.8a28.78,28.78,0,0,1,3.37-6.43A30.4,30.4,0,0,0,62.66,32.08Z"/><path class="cls-1" d="M28.79,74.2c-.67-25.88,3.3-38.52-1.59-40.63-3.92-1.69-11.58,3.81-10.66,5.92C20.7,49,48.35,42.9,50.87,34.32,52,30.46,46.29,22.57,40.45,24.07c-3.57.92-2.83,13.45-3.66,50.13"/><rect class="cls-2" x="17.33" y="76.99" width="29.5" height="4.58" rx="2.13" ry="2.13"/><rect class="cls-2" x="19.94" y="83.07" width="24.29" height="4.58" rx="1.93" ry="1.93"/><rect class="cls-2" x="22.85" y="89.15" width="19.23" height="4.58" rx="1.72" ry="1.72"/></g></g></svg>