<svg xmlns="http://www.w3.org/2000/svg" viewBox="0 0 100.75 96.01"><defs><style>.cls-1{fill:none;stroke:#231f20;stroke-miterlimit:10;stroke-width:3px;}.cls-2{fill:#231f20;}</style></defs><title>Ресурс 48</title><g id="Слой_2" data-name="Слой 2"><g id="Logo"><path class="cls-1" d="M73.36,37.81A27.08,27.08,0,1,0,39.05,72.12Z"/><rect class="cls-2" x="-1.25" y="51.73" width="118.65" height="3.03" rx="0.84" ry="0.84" transform="translate(-20.64 56.66) rotate(-45)"/><rect class="cls-2" x="46.33" y="70.58" width="40.63" height="3.26" rx="0.84" ry="0.84" transform="translate(40.09 166.82) rotate(-121.61)"/><rect class="cls-2" x="34.84" y="74.06" width="40.63" height="3.26" rx="0.84" ry="0.84" transform="translate(-20.53 130.85) rotate(-90)"/><rect class="cls-2" x="55.57" y="50.47" width="40.63" height="3.26" rx="0.84" ry="0.84" transform="translate(-6.94 11.94) rotate(-8.6)"/><rect class="cls-2" x="54.67" y="62.36" width="40.63" height="3.26" rx="0.84" ry="0.84" transform="translate(31.96 -24.71) rotate(23.65)"/><rect class="cls-2" x="74.23" y="34.18" width="13.77" height="3.26" rx="0.84" ry="0.84" transform="matrix(1, -0.05, 0.05, 1, -1.61, 3.89)"/><rect class="cls-2" x="80" y="44.84" width="13.77" height="3.26" rx="0.84" ry="0.84" transform="translate(-1.28 90.48) rotate(-54.67)"/><rect class="cls-2" x="80.89" y="52.55" width="13.77" height="3.26" rx="0.84" ry="0.84" transform="translate(47.5 -40.78) rotate(35.33)"/><rect class="cls-2" x="80.25" y="62.74" width="13.77" height="3.26" rx="0.84" ry="0.84" transform="translate(-17.78 37.36) rotate(-22.02)"/><rect class="cls-2" x="76.84" y="69.72" width="13.77" height="3.26" rx="0.84" ry="0.84" transform="translate(118.48 -33.02) rotate(67.98)"/><rect class="cls-2" x="69.19" y="78.56" width="13.77" height="3.26" rx="0.84" ry="0.84" transform="translate(18.35 -14.07) rotate(12.01)"/><rect class="cls-2" x="62.46" y="82.43" width="13.77" height="3.26" rx="0.84" ry="0.84" transform="translate(166 33.73) rotate(102.01)"/><rect class="cls-2" x="52.7" y="86.06" width="13.77" height="3.26" rx="0.84" ry="0.84" transform="translate(86.7 -14.81) rotate(49.01)"/><rect class="cls-2" x="43.94" y="85.89" width="13.77" height="3.26" rx="0.84" ry="0.84" transform="translate(149.44 110.31) rotate(133.16)"/><rect class="cls-2" x="31.15" y="78.69" width="13.77" height="3.26" rx="0.84" ry="0.84" transform="translate(-42.29 118.35) rotate(-90)"/><rect class="cls-2" x="35.6" y="5.29" width="13.77" height="3.26" rx="0.84" ry="0.84" transform="translate(38.3 49.76) rotate(-93.67)"/><rect class="cls-2" x="22.63" y="8.21" width="13.77" height="3.26" rx="0.84" ry="0.84" transform="translate(28.73 40.94) rotate(-107)"/><rect class="cls-2" x="48.64" y="6.4" width="13.77" height="3.26" rx="0.84" ry="0.84" transform="translate(40.58 62.11) rotate(-82.79)"/><rect class="cls-2" x="61.03" y="12.37" width="13.77" height="3.26" rx="0.84" ry="0.84" transform="translate(18.85 63.01) rotate(-56.62)"/><rect class="cls-2" x="71.78" y="21.03" width="13.77" height="3.26" rx="0.84" ry="0.84" transform="translate(3.84 55.87) rotate(-40.01)"/><rect class="cls-2" x="2.26" y="28.75" width="13.77" height="3.26" rx="0.84" ry="0.84" transform="translate(10.49 -1.32) rotate(19.19)"/><rect class="cls-2" x="0.05" y="42.05" width="13.77" height="3.26" rx="0.84" ry="0.84" transform="translate(4.48 -0.48) rotate(5.84)"/><rect class="cls-2" x="1.49" y="54.98" width="13.77" height="3.26" rx="0.84" ry="0.84" transform="translate(-21.97 8.09) rotate(-23.6)"/><rect class="cls-2" x="6.72" y="67.65" width="13.77" height="3.26" rx="0.84" ry="0.84" transform="translate(-36.83 19.87) rotate(-34.48)"/><rect class="cls-2" x="16.16" y="76.9" width="13.77" height="3.26" rx="0.84" ry="0.84" transform="translate(-50.62 42.86) rotate(-47.81)"/><rect class="cls-2" x="9.48" y="15.99" width="13.77" height="3.26" rx="0.84" ry="0.84" transform="translate(18.06 41.61) rotate(-141.19)"/></g></g></svg>