<svg xmlns="http://www.w3.org/2000/svg" viewBox="0 0 95.5 88.28"><defs><style>.cls-1{fill:#231f20;}.cls-2{fill:none;stroke:#231f20;stroke-miterlimit:10;}</style></defs><title>Ресурс 35</title><g id="Слой_2" data-name="Слой 2"><g id="Logo"><rect class="cls-1" x="4.84" width="85.81" height="11.15"/><path class="cls-1" d="M92.41,1.36H94A1.51,1.51,0,0,1,95.5,2.88v4.8A1.51,1.51,0,0,1,94,9.18H92.41a0,0,0,0,1,0,0V1.36A0,0,0,0,1,92.41,1.36Z"/><path class="cls-1" d="M0,1.67H1.57A1.51,1.51,0,0,1,3.09,3.18V8A1.51,1.51,0,0,1,1.58,9.49H0a0,0,0,0,1,0,0V1.67a0,0,0,0,1,0,0Z" transform="translate(3.09 11.15) rotate(-180)"/><rect class="cls-1" x="4.84" y="84.68" width="85.81" height="3.6"/><rect class="cls-1" x="7.37" y="13.3" width="80.77" height="5.53"/><rect class="cls-1" x="7.37" y="20.6" width="80.77" height="5.53"/><rect class="cls-1" x="7.37" y="27.91" width="80.77" height="5.53"/><rect class="cls-1" x="7.37" y="35.21" width="80.77" height="5.53"/><rect class="cls-1" x="7.37" y="42.14" width="80.77" height="5.53"/><rect class="cls-1" x="7.37" y="49.45" width="80.77" height="5.53"/><rect class="cls-1" x="7.37" y="56.9" width="80.77" height="5.53"/><rect class="cls-1" x="7.37" y="64.02" width="80.77" height="5.53"/><rect class="cls-1" x="7.37" y="70.84" width="80.77" height="5.53"/><rect class="cls-1" x="7.37" y="77.67" width="80.77" height="5.53"/><line class="cls-2" x1="93.65" y1="10.43" x2="93.65" y2="54.98"/><rect class="cls-1" x="92.51" y="55.88" width="2.27" height="6.26" rx="0.78" ry="0.78"/></g></g></svg>