<svg xmlns="http://www.w3.org/2000/svg" xmlns:xlink="http://www.w3.org/1999/xlink" viewBox="0 0 242.99 28.9"><defs><style>.cls-1{fill:#0a2847;}.cls-2,.cls-3,.cls-4,.cls-5{fill:none;stroke-miterlimit:10;stroke-width:2px;}.cls-2{stroke:url(#Безымянный_градиент_20);}.cls-3{stroke:url(#Безымянный_градиент_20-2);}.cls-4{stroke:url(#Безымянный_градиент_20-3);}.cls-5{stroke:url(#Безымянный_градиент_20-4);}</style><linearGradient id="Безымянный_градиент_20" x1="24.27" y1="9.13" x2="24.27" y2="1.46" gradientTransform="translate(6.52 22.68) rotate(-56.72)" gradientUnits="userSpaceOnUse"><stop offset="0" stop-color="#33ab80"/><stop offset="1" stop-color="#0a2847"/></linearGradient><linearGradient id="Безымянный_градиент_20-2" x1="3.84" y1="27.14" x2="3.84" y2="19.47" gradientTransform="translate(27.42 24.45) rotate(102.13)" xlink:href="#Безымянный_градиент_20"/><linearGradient id="Безымянный_градиент_20-3" x1="131.41" y1="3.83" x2="139.08" y2="3.83" gradientTransform="translate(136.32 -131.46) rotate(88.83)" xlink:href="#Безымянный_градиент_20"/><linearGradient id="Безымянный_градиент_20-4" x1="154.67" y1="28.9" x2="154.67" y2="21.24" gradientTransform="matrix(1, 0, 0, 1, 0, 0)" xlink:href="#Безымянный_градиент_20"/></defs><title>Ресурс 49</title><g id="Слой_2" data-name="Слой 2"><g id="Logo"><path class="cls-1" d="M25.25,14.58a11.25,11.25,0,0,0-6.49-2.64c-.93-.11-2.24-.22-3.93-.32Q9.31,11.28,7.65,10a3.69,3.69,0,0,1-1-1.1,2.69,2.69,0,0,1-.31-1.3,3.44,3.44,0,0,1,2-3,9.65,9.65,0,0,1,5-1.18,16.12,16.12,0,0,1,5.65,1,17.31,17.31,0,0,1,2.82,1.35A2.47,2.47,0,0,1,23.45,3,23.34,23.34,0,0,0,20,1.45,20.62,20.62,0,0,0,13.32.34,12.62,12.62,0,0,0,5.78,2.43,6.35,6.35,0,0,0,2.87,7.78a5.55,5.55,0,0,0,1,3.21A7,7,0,0,0,6.7,13.32q2.42,1.11,9.05,1.57c.9,0,1.58.1,2.05.15a8.62,8.62,0,0,1,4.63,1.53,3.94,3.94,0,0,1,1.67,3.26,4.75,4.75,0,0,1-2.33,4.07,10.59,10.59,0,0,1-6.07,1.59,17.21,17.21,0,0,1-6.12-1.18,20,20,0,0,1-2.89-1.37,6.5,6.5,0,0,1-.13.9h0A2.39,2.39,0,0,1,5.35,26l-.13.06a20.85,20.85,0,0,0,3,1.32,23.18,23.18,0,0,0,7.48,1.18,14.06,14.06,0,0,0,8.61-2.44,7.44,7.44,0,0,0,3.29-6.22A7,7,0,0,0,25.25,14.58Z"/><path class="cls-1" d="M33.59,27.89V7h2.71l8.54,12.22L53.4,7.05h2.71V27.9H52.85v-15l-8,11.59-8-11.6v15Z"/><path class="cls-1" d="M59.25,27.91,69.86,7.06h2L82.59,27.92H79.1l-2.71-5.3h-11l-2.69,5.3Zm7.55-8.06H75l-4-8Z"/><path class="cls-1" d="M89,18.82v9.11H85.74V7.12h14.36a7.49,7.49,0,0,1,5,1.54A5.31,5.31,0,0,1,106.92,13a5.63,5.63,0,0,1-1.43,3.84,6.14,6.14,0,0,1-3.73,2l5.78,9.16H104l-5.9-9.11Zm0-3.05H100.1a4,4,0,0,0,2.58-.73,2.55,2.55,0,0,0,.89-2.1,2.5,2.5,0,0,0-.89-2.08,4.05,4.05,0,0,0-2.57-.73H89Z"/><path class="cls-1" d="M117.75,27.94V10H109V7.09h20.85V10H121V28Z"/><path class="cls-1" d="M152.83,23.75a2.29,2.29,0,0,1,1.88-.88,2.33,2.33,0,0,1,1.49.48l0-22.34h-3.37V11.66H137V5.9a2.49,2.49,0,0,1-3.39-.16l0,22.21h3.4V14.75h15.9Z"/><path class="cls-1" d="M174.8,28.64a13.36,13.36,0,0,1-9.15-3.16,10.1,10.1,0,0,1-3.59-7.91,10.05,10.05,0,0,1,3.59-7.9,15.17,15.17,0,0,1,18.38,0,10,10,0,0,1,3.57,7.92A10.07,10.07,0,0,1,184,25.51,13.51,13.51,0,0,1,174.8,28.64Zm0-3.05a10.1,10.1,0,0,0,6.82-2.26,7.22,7.22,0,0,0,2.64-5.75,7.2,7.2,0,0,0-2.65-5.73,11.3,11.3,0,0,0-13.57,0,7.27,7.27,0,0,0-2.63,5.75A7.24,7.24,0,0,0,168,23.32,10.05,10.05,0,0,0,174.8,25.59Z"/><path class="cls-1" d="M192.89,28l0-20.85h2.71l8.53,12.21,8.56-12.2h2.71l0,20.85h-3.24V13l-8,11.59-8-11.6V28Z"/><path class="cls-1" d="M222.53,28V7.16H242.1v3.05H225.81v5.2H236.5v3H225.81V25H243v3Z"/><circle class="cls-2" cx="24.27" cy="5.3" r="2.83"/><circle class="cls-3" cx="3.84" cy="23.3" r="2.83"/><circle class="cls-4" cx="135.25" cy="3.83" r="2.83"/><circle class="cls-5" cx="154.67" cy="25.07" r="2.83"/></g></g></svg>