<svg xmlns="http://www.w3.org/2000/svg" viewBox="0 0 59.42 112.44"><defs><style>.cls-1{fill:none;}.cls-1,.cls-2{stroke:#231f20;stroke-miterlimit:10;stroke-width:3px;}.cls-2{fill:#33ab80;}</style></defs><title>stars</title><g id="Слой_2" data-name="Слой 2"><g id="img"><path class="cls-1" d="M31.17,2.41l7.45,15.11a1.65,1.65,0,0,0,1.23.89l16.67,2.42a1.62,1.62,0,0,1,.9,2.77L45.36,35.36a1.62,1.62,0,0,0-.47,1.44l2.85,16.61a1.62,1.62,0,0,1-2.36,1.71L30.46,47.28a1.61,1.61,0,0,0-1.51,0L14,55.12a1.62,1.62,0,0,1-2.36-1.71L14.53,36.8a1.65,1.65,0,0,0-.47-1.44L2,23.6a1.63,1.63,0,0,1,.9-2.77l16.68-2.42a1.61,1.61,0,0,0,1.22-.89L28.25,2.41A1.63,1.63,0,0,1,31.17,2.41Z"/><path class="cls-2" d="M31.17,58l7.45,15.11a1.65,1.65,0,0,0,1.23.89l16.67,2.42a1.63,1.63,0,0,1,.9,2.78L45.36,91a1.61,1.61,0,0,0-.47,1.44L47.74,109a1.63,1.63,0,0,1-2.36,1.71l-14.92-7.84a1.61,1.61,0,0,0-1.51,0L14,110.75A1.62,1.62,0,0,1,11.68,109l2.85-16.61A1.63,1.63,0,0,0,14.06,91L2,79.23a1.63,1.63,0,0,1,.9-2.78L19.57,74a1.61,1.61,0,0,0,1.22-.89L28.25,58A1.63,1.63,0,0,1,31.17,58Z"/></g></g></svg>