<svg xmlns="http://www.w3.org/2000/svg" viewBox="0 0 87.17 92.59"><defs><style>.cls-1{fill:#231f20;}</style></defs><title>Ресурс 47</title><g id="Слой_2" data-name="Слой 2"><g id="Logo"><rect class="cls-1" x="0.96" y="85.71" width="79.72" height="6.88" rx="3.11" ry="3.11"/><path class="cls-1" d="M63.84,48.33s2.74,6.79,5.48,6.67,13-8.33,10.12-20.24-6.07-20.12-11.91-21.9-6.07-1.07-9.76,0S68.22.48,68.22.48s2.77-.12,9.91,9S92.3,39.76,81.94,52.74s-6.79,9.88-13.81,13.69S63.84,48.33,63.84,48.33Z"/><path class="cls-1" d="M75,65.83c-1.9-14-12.14-42.38-9.76-51.66a138,138,0,0,0,3-13.69L0,0A41.43,41.43,0,0,1,4.17,7.86C6.31,13,8.78,20,9.05,26.19,9.52,37,1.19,56.43,1.9,62.62S3.33,79.52,14.05,82.5H63.1S76.91,79.88,75,65.83ZM45.84,58.3a5.09,5.09,0,0,1-5.08,5.09H34.42a5.09,5.09,0,0,1-5.08-5.09V24.2a5.08,5.08,0,0,1,5.08-5.08h6.34a5.08,5.08,0,0,1,5.08,5.08Z"/><rect class="cls-1" x="38.34" y="28.78" width="12" height="2.8" rx="1.15" ry="1.15"/><rect class="cls-1" x="38.34" y="35.14" width="12" height="2.8" rx="1.15" ry="1.15"/><rect class="cls-1" x="38.34" y="41.51" width="12" height="2.8" rx="1.15" ry="1.15"/><rect class="cls-1" x="38.34" y="47.87" width="12" height="2.8" rx="1.15" ry="1.15"/><rect class="cls-1" x="38.34" y="54.24" width="12" height="2.8" rx="1.15" ry="1.15"/></g></g></svg>