<svg xmlns="http://www.w3.org/2000/svg" viewBox="0 0 147.63 81.37"><defs><style>.cls-1,.cls-4{fill:none;}.cls-1,.cls-2,.cls-4{stroke:#231f20;stroke-miterlimit:10;}.cls-1,.cls-2{stroke-width:3.06px;}.cls-2{fill:#231f20;}.cls-3{fill:#fff;}.cls-4{stroke-width:2.94px;}</style></defs><title>view_1</title><g id="Слой_2" data-name="Слой 2"><g id="ShowPassword"><path class="cls-1" d="M2,48.29c17.88-22,49.53-31.75,71-31.75s55.11,9.72,72.7,31.82C128.07,69.54,94.94,79.83,73.49,79.83S19.87,69.39,2,48.29Z"/><path class="cls-2" d="M98.55,20.59a32.93,32.93,0,1,1-50.15-.27l25-2.77Z"/><path class="cls-3" d="M40.91,28.94c11-5.53,25.66,7.87,24.6,14.44-1.26,7.76-25.79,14-31.67,6.07C30.11,44.4,33.29,32.78,40.91,28.94Z"/><path class="cls-3" d="M100.55,53.93c-3.1-5-12.42-2.6-13.62.5-1.42,3.66,7,12.11,11.4,10C101.11,63.16,102.7,57.37,100.55,53.93Z"/><line class="cls-4" x1="71.59" y1="17.5" x2="71.59"/><line class="cls-4" x1="122.28" y1="28.07" x2="135.19" y2="15.69"/><line class="cls-4" x1="20.97" y1="30.03" x2="8.06" y2="17.65"/><line class="cls-4" x1="44.64" y1="19.46" x2="36.8" y2="3.66"/><line class="cls-4" x1="99.43" y1="19.89" x2="109.39" y2="5.23"/></g></g></svg>