<svg xmlns="http://www.w3.org/2000/svg" viewBox="0 0 85.04 85.04"><defs><style>.cls-1{fill:#939598;}.cls-2,.cls-4{fill:none;}.cls-2,.cls-3,.cls-4{stroke:#fff;stroke-miterlimit:10;}.cls-2,.cls-3{stroke-width:3.06px;}.cls-3{fill:#fff;}.cls-4{stroke-width:2.94px;}</style></defs><title>view_circle_1</title><g id="Слой_2" data-name="Слой 2"><g id="help"><circle class="cls-1" cx="42.52" cy="42.52" r="42.52"/><path class="cls-2" d="M12,47.62C19.86,37.3,33.74,32.75,43.14,32.75S67.3,37.3,75,47.65C67.3,57.57,52.77,62.39,43.37,62.39S19.86,57.5,12,47.62Z"/><path class="cls-3" d="M54,35a13.67,13.67,0,1,1-20.82-.11L43.5,33.75Z"/><path class="cls-1" d="M30,38.89c4.56-2.29,10.65,3.27,10.21,6-.52,3.22-10.7,5.82-13.14,2.52C25.55,45.31,26.87,40.49,30,38.89Z"/><path class="cls-1" d="M54.79,49.27c-1.28-2.06-5.15-1.08-5.65.21-.59,1.52,2.91,5,4.73,4.17C55,53.1,55.68,50.7,54.79,49.27Z"/><line class="cls-4" x1="42.54" y1="33.17" x2="42.54" y2="25.5"/><line class="cls-4" x1="64.76" y1="38.36" x2="70.42" y2="32.94"/><line class="cls-4" x1="20.35" y1="38.78" x2="14.69" y2="33.36"/><line class="cls-4" x1="30.73" y1="34.03" x2="27.29" y2="27.1"/><line class="cls-4" x1="54.74" y1="33.78" x2="59.11" y2="27.35"/></g></g></svg>